<svg width="200" height="200" viewBox="0 0 200 200" fill="none" xmlns="http://www.w3.org/2000/svg">
<rect width="200" height="200" rx="40" fill="#A4FBD6"/>
<path d="M0 40C0 17.9086 17.9086 0 40 0H160C182.091 0 200 17.9086 200 40V100H0V40Z" fill="#4CF3F0"/>
<path d="M88.6875 48V144H70.6875V48H88.6875ZM86.125 107.812H81.1875C81.2292 103.104 81.8542 98.7708 83.0625 94.8125C84.2708 90.8125 86 87.3542 88.25 84.4375C90.5 81.4792 93.1875 79.1875 96.3125 77.5625C99.4792 75.9375 102.979 75.125 106.812 75.125C110.146 75.125 113.167 75.6042 115.875 76.5625C118.625 77.4792 120.979 78.9792 122.938 81.0625C124.938 83.1042 126.479 85.7917 127.562 89.125C128.646 92.4583 129.188 96.5 129.188 101.25V144H111.062V101.125C111.062 98.125 110.625 95.7708 109.75 94.0625C108.917 92.3125 107.688 91.0833 106.062 90.375C104.479 89.625 102.521 89.25 100.188 89.25C97.6042 89.25 95.3958 89.7292 93.5625 90.6875C91.7708 91.6458 90.3333 92.9792 89.25 94.6875C88.1667 96.3542 87.375 98.3125 86.875 100.562C86.375 102.812 86.125 105.229 86.125 107.812Z" fill="#4A4A4A"/>
</svg>
